<?xml version="1.0" encoding="utf-8"?>
<!-- Generator: Adobe Illustrator 16.0.4, SVG Export Plug-In . SVG Version: 6.00 Build 0)  -->
<!DOCTYPE svg PUBLIC "-//W3C//DTD SVG 1.1//EN" "http://www.w3.org/Graphics/SVG/1.1/DTD/svg11.dtd">
<svg version="1.1"
	 id="CoV" xmlns:dc="http://purl.org/dc/elements/1.1/" xmlns:cc="http://creativecommons.org/ns#" xmlns:rdf="http://www.w3.org/1999/02/22-rdf-syntax-ns#" xmlns:svg="http://www.w3.org/2000/svg" xmlns:sodipodi="http://sodipodi.sourceforge.net/DTD/sodipodi-0.dtd" xmlns:inkscape="http://www.inkscape.org/namespaces/inkscape" sodipodi:docname="circle.svg" inkscape:version="0.92.1 r15371"
	 xmlns="http://www.w3.org/2000/svg" xmlns:xlink="http://www.w3.org/1999/xlink" x="0px" y="0px" width="595.279px"
	 height="841.891px" viewBox="0 0 595.279 841.891" enable-background="new 0 0 595.279 841.891" xml:space="preserve">
<sodipodi:namedview  inkscape:cy="663.79641" inkscape:cx="335.20809" inkscape:zoom="0.95776958" fit-margin-left="0" fit-margin-top="0" showgrid="false" guidetolerance="10" gridtolerance="10" objecttolerance="10" borderopacity="1" bordercolor="#666666" pagecolor="#ffffff" id="namedview259" units="px" inkscape:current-layer="layer0" inkscape:window-maximized="1" inkscape:window-y="-9" inkscape:window-x="-9" inkscape:pageopacity="0" fit-margin-bottom="0" inkscape:window-height="1001" fit-margin-right="0" inkscape:pageshadow="2" inkscape:window-width="1920">
	</sodipodi:namedview>
<g id="layer0" transform="translate(1218.46,-110.06998)" inkscape:label="Layer 0" inkscape:groupmode="layer">
	<circle id="circle5213" fill="#FFFFFF" cx="-920.067" cy="530.639" r="295.759"/>
	<g>
		<defs>
			<circle id="SVGID_1_" cx="-920.82" cy="530.266" r="295.759"/>
		</defs>
		<clipPath id="SVGID_2_">
			<use xlink:href="#SVGID_1_"  overflow="visible"/>
		</clipPath>
		<g id="grid-thing" transform="translate(-320,-15.286)" clip-path="url(#SVGID_2_)">
			<g id="g5247" transform="translate(-904.05,-96.167)">
				<path id="path5249" inkscape:connector-curvature="0" fill="none" stroke="#000000" stroke-width="5" d="M642.319,640.96
					H-34.354"/>
				<path id="path5251" inkscape:connector-curvature="0" fill="none" stroke="#000000" stroke-width="5" d="M303.983,302.624
					v676.673"/>
			</g>
			<g id="g4670">
				<path id="path5259" inkscape:connector-curvature="0" fill="none" stroke="#000000" stroke-width="5" d="M-921.363,438.794
					l642.6,211.995"/>
				<path id="path4662" inkscape:connector-curvature="0" fill="none" stroke="#000000" stroke-width="5" d="M-708.112,224.532
					l218.22,640.515"/>
				<path id="path4664" inkscape:connector-curvature="0" fill="none" stroke="#000000" stroke-width="5" d="M-800.17,271.974
					l400.213,545.627"/>
				<path id="path4666" inkscape:connector-curvature="0" fill="none" stroke="#000000" stroke-width="5" d="M-873.163,345.08
					l546.206,399.43"/>
			</g>
			<g id="g4676" transform="matrix(-0.0082162,0.99997,-0.99997,-0.0082162,12.653,1025)">
				<path id="path4678" inkscape:connector-curvature="0" fill="none" stroke="#000000" stroke-width="5" d="M-796.496,510.644
					l642.6,211.994"/>
				<path id="path4680" inkscape:connector-curvature="0" fill="none" stroke="#000000" stroke-width="5" d="M-583.244,296.381
					l218.219,640.515"/>
				<path id="path4682" inkscape:connector-curvature="0" fill="none" stroke="#000000" stroke-width="5" d="M-675.302,343.824
					L-275.09,889.45"/>
				<path id="path4684" inkscape:connector-curvature="0" fill="none" stroke="#000000" stroke-width="5" d="M-748.296,416.929
					l546.206,399.43"/>
			</g>
		</g>
	</g>
	<a id="a3851" xlink:href="/art/circle" >
		<g id="art-circle" transform="translate(-1180,-14.286)">
			<path id="path4765" inkscape:connector-curvature="0" fill="#ED5D01" d="M82.155,781.076l30.84-41.785
				c-18.172-13.846-33.292-28.854-50.425-51.154L20.913,717.72C36.349,738.987,52.626,756.751,82.155,781.076L82.155,781.076z"/>
			<g id="g5949" transform="matrix(0.53294,0,0,0.53294,73.174,741.78)">
				<path id="path5951" inkscape:connector-curvature="0" fill="#FFFFFF" d="M-25.412,9.885V5.812
					c-4.401-2.126-8.11-5.464-10.701-9.573h-4.299C-37.179,2.367-31.865,7.232-25.412,9.885z"/>
				<path id="path5953" inkscape:connector-curvature="0" fill="#FFFFFF" d="M-2.941,5.812v4.072
					C3.513,7.23,8.827,2.367,12.061-3.762H7.76C5.169,0.348,1.461,3.686-2.941,5.812L-2.941,5.812z"/>
				<path id="path5955" inkscape:connector-curvature="0" fill="#FFFFFF" d="M12.061-31.333C8.827-37.462,3.513-42.325-2.941-44.979
					v4.073c4.401,2.126,8.11,5.462,10.701,9.572H12.061z"/>
				<path id="path5957" inkscape:connector-curvature="0" fill="#FFFFFF" d="M-25.412-40.905v-4.073
					c-6.454,2.653-11.768,7.517-15.002,13.646h4.301C-33.522-35.441-29.813-38.78-25.412-40.905z"/>
				<path id="path5959" inkscape:connector-curvature="0" fill="#FFFFFF" d="M-9.037-0.959c0-1.035-0.31-1.995-0.836-2.802
					c-0.916-1.405-2.499-2.336-4.304-2.336c-1.803,0-3.384,0.929-4.302,2.336c-0.526,0.806-0.836,1.768-0.836,2.802
					c0,2.837,2.302,5.138,5.138,5.138C-11.339,4.179-9.037,1.878-9.037-0.959z"/>
				<path id="path5961" inkscape:connector-curvature="0" fill="#FFFFFF" d="M-4.896,13.22c0-3.898-3.17-7.066-7.066-7.066h-4.427
					c-3.898,0-7.068,3.17-7.068,7.066h1.121h1.118h14.082h1.121H-4.896z"/>
				<circle id="circle5963" fill="#FFFFFF" cx="-14.177" cy="-43.175" r="5.139"/>
				<path id="path5965" inkscape:connector-curvature="0" fill="#FFFFFF" d="M-5.301-31.333c-0.969-2.75-3.584-4.729-6.661-4.729
					h-4.427c-3.077,0-5.693,1.979-6.663,4.729c-0.257,0.733-0.405,1.517-0.405,2.336h2.239h14.082h2.239
					C-4.896-29.815-5.043-30.6-5.301-31.333z"/>
				<circle id="circle5967" fill="#FFFFFF" cx="10.414" cy="-22.067" r="5.139"/>
				<path id="path5969" inkscape:connector-curvature="0" fill="#FFFFFF" d="M12.627-14.955H8.2c-3.896,0-7.066,3.17-7.066,7.066
					h2.239h14.082h2.237C19.693-11.785,16.523-14.955,12.627-14.955z"/>
				<circle id="circle5971" fill="#FFFFFF" cx="-38.766" cy="-22.067" r="5.139"/>
				<path id="path5973" inkscape:connector-curvature="0" fill="#FFFFFF" d="M-45.806-7.889h14.082h2.239
					c0-3.896-3.17-7.066-7.066-7.066h-4.427c-3.898,0-7.068,3.17-7.068,7.066H-45.806z"/>
			</g>
		</g>
	</a>
	<a id="a3932" xlink:href="/art/photo"  transform="translate(-1180,-14.286)">
		<g id="art-photo">
			<path id="path4763" inkscape:connector-curvature="0" fill="#ED5D01" d="M19.206,716.076l42.752-31.225
				c-13.202-18.65-21.762-35.834-31.445-62.229l-50.49,16.27C-11.606,663.8-1.701,684.036,19.206,716.076L19.206,716.076z"/>
			<path id="path5937" inkscape:connector-curvature="0" fill="#FFFFFF" d="M5.822,656.48h1.827
				c-0.025-1.45,0.499-1.803,2.056-1.803h1.146c1.557,0,2.042,0.333,2.056,1.803h1.403c0-2.877,1.03-5.334,4.465-5.334h3.756
				c3.435,0,4.465,2.458,4.465,5.334h8.488c0.69,0,1.256,0.565,1.256,1.256v18.493c0,0.691-0.565,1.256-1.256,1.256H5.822
				c-0.691,0-1.256-0.564-1.256-1.256v-18.493C4.565,657.045,5.13,656.48,5.822,656.48z M20.667,661.758
				c-2.882,0-5.218,2.253-5.218,5.031s2.336,5.03,5.218,5.03s5.219-2.252,5.219-5.03S23.549,661.758,20.667,661.758z M29.83,658.288
				c-1.68,0-1.68,2.725,0,2.725h3.777c1.681,0,1.681-2.725,0-2.725H29.83z M20.667,658.574c-4.543,0-8.227,3.683-8.227,8.226
				s3.684,8.227,8.227,8.227c4.544,0,8.227-3.684,8.227-8.227S25.211,658.574,20.667,658.574z"/>
		</g>
	</a>
	<a id="a3868" xlink:href="/art/interview" >
		<g id="art-interview" transform="translate(-1180,-14.286)">
			<path id="path4757" inkscape:connector-curvature="0" fill="#ED5D01" d="M-21.244,636.76l49.527-16.258
				c-6.664-21.85-11.269-47.282-12.15-75.387l-52.216-0.026c1.491,34.229,4.879,63.132,14.839,91.666V636.76z"/>
			<g id="g5939" transform="translate(-663.9,309.22)">
				
					<path id="path5941" inkscape:connector-curvature="0" fill="#FFFFFF" stroke="#FFFFFF" stroke-width="0.5" stroke-linecap="square" d="
					M640.968,292.677c-0.23-0.161-0.418-0.407-0.418-0.547c0-0.141,0.539-1.512,1.198-3.048l1.198-2.792l-0.553-1.103
					c-1.217-2.426-1.643-6.152-0.992-8.69c0.733-2.864,2.641-5.734,4.866-7.323c2.095-1.494,5.023-2.548,7.085-2.548
					c0.479,0,0.985-0.146,1.308-0.375c0.961-0.684,2.884-1.494,4.291-1.807c1.02-0.228,1.973-0.287,3.583-0.224
					c3.618,0.141,5.944,1.175,8.614,3.831c1.246,1.238,1.689,1.847,2.403,3.293c1.405,2.847,1.778,5.734,1.125,8.708l-0.306,1.395
					l1.812,3.219c1.779,3.161,2.037,3.863,1.586,4.314c-0.343,0.343-0.562,0.303-4.058-0.743c-3.596-1.074-3.218-1.084-5.125,0.126
					c-1.802,1.144-4.631,1.972-6.736,1.972c-0.63,0-1.289,0.204-2.383,0.737c-3.479,1.695-7.301,1.76-10.805,0.181
					c-0.661-0.298-1.304-0.542-1.428-0.542c-0.125,0-1.446,0.508-2.938,1.129c-1.49,0.621-2.756,1.129-2.811,1.129
					C641.431,292.969,641.197,292.837,640.968,292.677L640.968,292.677z M665.573,287.827c0.775-0.273,2.088-0.96,2.917-1.527
					l1.507-1.031l2.446,0.744c1.346,0.41,2.504,0.725,2.574,0.699c0.069-0.025-0.509-1.182-1.287-2.568l-1.414-2.522l0.346-1.053
					c0.537-1.634,0.49-5.341-0.089-7.016c-1.648-4.771-6.455-7.973-11.44-7.621c-4.217,0.298-8.028,2.98-9.667,6.805
					c-0.466,1.087-0.944,3.406-0.94,4.561c0.018,4.904,3.77,9.654,8.588,10.87C660.839,288.603,663.817,288.447,665.573,287.827
					L665.573,287.827z"/>
				
					<path id="path5943" inkscape:connector-curvature="0" fill="#FFFFFF" stroke="#FFFFFF" stroke-width="0.5" stroke-linecap="square" d="
					M656.427,274.342c-0.516-0.209-0.667-0.818-0.323-1.309c0.265-0.378,0.428-0.389,5.789-0.389c5.938,0,6.044,0.018,5.907,0.973
					c-0.118,0.823-0.659,0.904-5.989,0.895C659.068,274.506,656.645,274.43,656.427,274.342L656.427,274.342z"/>
				
					<path id="path5945" inkscape:connector-curvature="0" fill="#FFFFFF" stroke="#FFFFFF" stroke-width="0.5" stroke-linecap="square" d="
					M656.096,278.082c-0.182-0.259-0.324-0.6-0.13-0.8c0.688-0.705,0.24-0.411,5.749-0.451c5.891-0.043,6.117-0.023,6.117,0.788
					c0,0.839-0.156,0.861-5.955,0.861C656.488,278.481,656.369,278.473,656.096,278.082L656.096,278.082z"/>
				
					<path id="path5947" inkscape:connector-curvature="0" fill="#FFFFFF" stroke="#FFFFFF" stroke-width="0.5" stroke-linecap="square" d="
					M656.081,282.199c-0.377-0.538-0.369-0.634,0.083-1.087c0.359-0.358,0.628-0.376,5.726-0.376c5.777,0,5.941,0.027,5.941,1.011
					c0,0.85-0.146,0.87-5.954,0.87C656.403,282.617,656.372,282.615,656.081,282.199L656.081,282.199z"/>
			</g>
		</g>
	</a>
	<a id="a3842" xlink:href="/art/dance" >
		<g id="art-dance" transform="translate(-1180,-14.286)">
			<path id="path4767" inkscape:connector-curvature="0" fill="#ED5D01" d="M163.359,823.841l16.532-49.254
				c-21.5-7.725-41.872-17.825-64.929-33.924l-30.538,41.975c21.128,15.626,43.448,26.909,78.932,41.204L163.359,823.841z"/>
			<g id="g5922" transform="translate(2,-2)">
				<path id="path5914" inkscape:connector-curvature="0" opacity="0.97" fill="#FFFFFF" enable-background="new    " d="
					M138.199,784.543c-1.449-0.443-2.819-0.922-3.047-1.064c-0.706-0.444-0.909-1.071-0.847-2.611
					c0.032-0.786-0.048-2.429-0.178-3.651c-0.218-2.059-0.131-3.558,0.286-4.928c0.031-0.104,0.122-0.421,0.2-0.704
					c0.079-0.284,0.219-0.471,0.31-0.414c0.092,0.057,0.12-0.018,0.063-0.165s0.025-0.396,0.182-0.552s0.243-0.325,0.193-0.375
					c-0.149-0.149,1.582-1.974,2.287-2.409c0.361-0.224,1.056-0.444,1.544-0.492c0.895-0.086,2.299,0.238,2.299,0.531
					c0,0.087,0.164,0.158,0.365,0.158s0.484,0.169,0.629,0.375s0.308,0.33,0.362,0.274c0.221-0.22,1.846,1.878,2.211,2.854
					c1.002,2.679,0.536,6.827-1.253,11.154c-0.836,2.021-0.965,2.218-1.683,2.559C141.307,785.471,141.183,785.455,138.199,784.543
					L138.199,784.543z"/>
				<path id="path5916" inkscape:connector-curvature="0" opacity="0.97" fill="#FFFFFF" enable-background="new    " d="
					M120.888,792.333c-0.757-0.317-1.186-0.954-1.945-2.891c-1.247-3.18-1.56-4.561-1.597-7.053c-0.019-1.21,0.02-2.454,0.084-2.765
					c0.175-0.845,0.747-2.164,0.938-2.164c0.092,0,0.168-0.115,0.168-0.257c0-0.342,1.787-2.001,2.155-2.001
					c0.16,0,0.291-0.077,0.291-0.17c0-0.498,2.726-0.941,3.419-0.558c0.241,0.134,0.495,0.227,0.564,0.208
					c0.069-0.02,0.559,0.354,1.087,0.828c1.037,0.933,1.885,2.21,1.965,2.962c0.027,0.259,0.14,0.581,0.249,0.717
					c0.457,0.566,0.669,2.827,0.452,4.819c-0.115,1.063-0.21,2.777-0.21,3.81c0,1.818-0.018,1.894-0.552,2.453
					c-0.304,0.317-0.664,0.599-0.8,0.625c-0.137,0.025-1.352,0.4-2.7,0.832C121.936,792.537,121.535,792.604,120.888,792.333
					L120.888,792.333z"/>
				<path id="path5918" inkscape:connector-curvature="0" opacity="0.97" fill="#FFFFFF" enable-background="new    " d="
					M124.275,799.95c-0.692-0.243-2.58-1.99-2.502-2.316c0.018-0.072-0.11-0.459-0.285-0.859c-0.398-0.915-0.396-1.112,0.012-1.595
					c0.357-0.422,4.082-1.615,4.52-1.447c0.139,0.054,0.209,0.028,0.158-0.056c-0.093-0.148,2.275-0.973,2.795-0.973
					c0.145,0,0.438,0.224,0.652,0.496c0.537,0.683,0.557,3.229,0.035,4.428C128.774,799.665,126.391,800.692,124.275,799.95
					L124.275,799.95z"/>
				<path id="path5920" inkscape:connector-curvature="0" opacity="0.97" fill="#FFFFFF" enable-background="new    " d="
					M135.708,792.845c-0.337-0.108-0.611-0.273-0.611-0.368s-0.075-0.126-0.167-0.069c-0.262,0.161-1.762-1.569-1.639-1.891
					c0.06-0.153,0.028-0.23-0.069-0.171c-0.269,0.167-0.433-1.053-0.354-2.626c0.058-1.145,0.149-1.489,0.485-1.825l0.414-0.414
					l3.669,1.096c2.178,0.651,3.795,1.236,3.979,1.44c0.347,0.383,0.231,1.676-0.15,1.676c-0.116,0-0.157,0.053-0.093,0.117
					c0.213,0.213-0.47,1.278-1.342,2.094c-0.471,0.439-0.925,0.81-1.008,0.823c-0.083,0.013-0.229,0.034-0.324,0.047
					s-0.236,0.087-0.313,0.164C137.987,793.137,136.438,793.079,135.708,792.845z"/>
			</g>
		</g>
	</a>
	<a id="a3835" xlink:href="/art/trad" >
		<g id="art-trad" transform="translate(-1180,-14.286)">
			<path id="path4785" inkscape:connector-curvature="0" fill="#ED5D01" d="M258.112,788.271
				c-22.937-0.396-48.102-3.958-74.796-12.493l-16.887,49.662c25.967,8.759,56.618,13.604,92.088,14.532
				c0.263-10.748-0.669-36.489-0.403-51.701H258.112z"/>
			<g id="g5908">
				<path id="path5910" inkscape:connector-curvature="0" fill="#FFFFFF" d="M198.367,795.387l-0.41,24.159l33.023,0.56l0.41-24.159
					L198.367,795.387z M207.728,797.006l6.396,0.108l-0.042,2.468l-6.396-0.108L207.728,797.006z M219.346,807.008
					c0.585,0.393,0.57,1.227-0.027,1.6l-6.99,4.192c-0.632,0.372-1.459-0.094-1.446-0.824l0.146-8.655
					c0.013-0.729,0.819-1.168,1.474-0.774L219.346,807.008z M205.874,818.185l-6.396-0.108l0.042-2.468l6.396,0.108L205.874,818.185
					z M206.191,799.484l-6.396-0.108l0.041-2.469l6.396,0.108L206.191,799.484z M213.765,818.319l-6.396-0.108l0.042-2.468
					l6.396,0.108L213.765,818.319z M221.621,818.453l-6.396-0.108l0.042-2.469l6.396,0.108L221.621,818.453z M221.938,799.75
					l-6.396-0.108l0.041-2.468l6.396,0.108L221.938,799.75z M229.512,818.586l-6.396-0.109l0.042-2.468l6.396,0.108L229.512,818.586
					z M229.828,799.884l-6.396-0.108l0.042-2.468l6.396,0.108L229.828,799.884z"/>
			</g>
		</g>
	</a>
	<a id="a3796" xlink:href="/language/trad" >
		<g id="language-trad" transform="translate(-1180,-14.286)">
			<path id="path4769" inkscape:connector-curvature="0" fill="#876B37" d="M433.925,783.943l-31.341-42.533
				c-18.551,13.335-34.936,22.893-61.269,32.763l16.662,48.868c24.85-8.549,44.058-17.961,75.951-39.095L433.925,783.943z"/>
			<g id="g5890">
				<path id="path5892" inkscape:connector-curvature="0" fill="#FFFFFF" d="M368.468,768.292l-0.409,24.159l33.023,0.56
					l0.41-24.159L368.468,768.292z M377.829,769.91l6.396,0.109l-0.042,2.468l-6.396-0.108L377.829,769.91z M389.448,779.913
					c0.584,0.393,0.57,1.227-0.027,1.6l-6.99,4.192c-0.633,0.372-1.459-0.094-1.446-0.824l0.146-8.655
					c0.013-0.73,0.819-1.168,1.474-0.774L389.448,779.913z M375.975,791.089l-6.396-0.108l0.041-2.468l6.396,0.108L375.975,791.089z
					 M376.292,772.387l-6.396-0.108l0.042-2.468l6.396,0.108L376.292,772.387z M383.866,791.223l-6.396-0.108l0.042-2.468
					l6.396,0.108L383.866,791.223z M391.722,791.356l-6.396-0.108l0.041-2.468l6.396,0.108L391.722,791.356z M392.039,772.655
					l-6.396-0.108l0.042-2.468l6.396,0.108L392.039,772.655z M399.614,791.49l-6.396-0.108l0.042-2.468l6.396,0.108L399.614,791.49z
					 M399.93,772.789l-6.396-0.108l0.041-2.469l6.396,0.109L399.93,772.789z"/>
			</g>
		</g>
	</a>
	<a id="a3784" xlink:href="/language/interview" >
		<g id="language-interview" transform="translate(-1180,-14.286)">
			<path id="path4755" inkscape:connector-curvature="0" fill="#876B37" d="M354.64,824.452l-16.931-49.385
				c-21.759,6.965-47.812,11.534-75.906,12.804l0.068,52.593c34.537-1.866,66.831-7.366,92.765-16.012H354.64z"/>
			<g id="g5894" transform="translate(-254.5,601)">
				
					<path id="path5896" inkscape:connector-curvature="0" fill="#FFFFFF" stroke="#FFFFFF" stroke-width="0.5" stroke-linecap="square" d="
					M539.707,220.508c-0.23-0.161-0.419-0.407-0.419-0.547s0.54-1.511,1.199-3.047l1.198-2.793l-0.553-1.103
					c-1.217-2.426-1.643-6.151-0.992-8.689c0.733-2.865,2.641-5.735,4.866-7.323c2.095-1.495,5.023-2.548,7.085-2.548
					c0.479,0,0.984-0.146,1.307-0.375c0.962-0.685,2.885-1.495,4.292-1.808c1.02-0.227,1.973-0.286,3.583-0.224
					c3.618,0.142,5.944,1.176,8.614,3.831c1.246,1.239,1.689,1.847,2.403,3.293c1.405,2.848,1.778,5.734,1.125,8.708l-0.307,1.395
					l1.812,3.22c1.778,3.16,2.037,3.862,1.586,4.313c-0.343,0.343-0.562,0.303-4.058-0.742c-3.596-1.075-3.219-1.085-5.125,0.126
					c-1.802,1.144-4.631,1.971-6.736,1.971c-0.63,0-1.289,0.204-2.383,0.737c-3.48,1.696-7.301,1.76-10.806,0.181
					c-0.661-0.298-1.303-0.541-1.428-0.541c-0.124,0-1.445,0.508-2.937,1.129s-2.756,1.129-2.811,1.129
					C540.17,220.801,539.937,220.669,539.707,220.508L539.707,220.508z M564.313,215.659c0.775-0.272,2.088-0.96,2.917-1.527
					l1.507-1.031l2.446,0.745c1.346,0.409,2.504,0.724,2.574,0.698c0.069-0.025-0.51-1.181-1.287-2.568l-1.414-2.522l0.346-1.053
					c0.537-1.634,0.49-5.34-0.089-7.016c-1.648-4.771-6.455-7.972-11.44-7.62c-4.217,0.297-8.028,2.979-9.667,6.804
					c-0.467,1.087-0.944,3.407-0.94,4.561c0.018,4.905,3.77,9.654,8.588,10.87C559.578,216.435,562.557,216.278,564.313,215.659
					L564.313,215.659z"/>
				
					<path id="path5898" inkscape:connector-curvature="0" fill="#FFFFFF" stroke="#FFFFFF" stroke-width="0.5" stroke-linecap="square" d="
					M555.166,202.173c-0.517-0.209-0.667-0.818-0.323-1.309c0.265-0.378,0.428-0.389,5.789-0.389c5.938,0,6.044,0.018,5.907,0.973
					c-0.118,0.823-0.659,0.904-5.989,0.895C557.808,202.338,555.385,202.262,555.166,202.173L555.166,202.173z"/>
				
					<path id="path5900" inkscape:connector-curvature="0" fill="#FFFFFF" stroke="#FFFFFF" stroke-width="0.5" stroke-linecap="square" d="
					M554.835,205.915c-0.182-0.26-0.325-0.601-0.13-0.8c0.688-0.706,0.24-0.411,5.749-0.452c5.891-0.043,6.116-0.023,6.116,0.788
					c0,0.839-0.155,0.861-5.954,0.861C555.228,206.312,555.109,206.304,554.835,205.915L554.835,205.915z"/>
				
					<path id="path5902" inkscape:connector-curvature="0" fill="#FFFFFF" stroke="#FFFFFF" stroke-width="0.5" stroke-linecap="square" d="
					M554.821,210.032c-0.377-0.539-0.37-0.635,0.083-1.088c0.359-0.358,0.628-0.376,5.726-0.376c5.777,0,5.941,0.027,5.941,1.011
					c0,0.85-0.146,0.871-5.955,0.871C555.143,210.45,555.112,210.447,554.821,210.032L554.821,210.032z"/>
			</g>
		</g>
	</a>
	<a id="a3803" xlink:href="/language/circle" >
		<g id="language-circle" transform="translate(-1180,-14.286)">
			<path id="path4771" inkscape:connector-curvature="0" fill="#876B37" d="M496.539,719.259l-41.991-30.724
				c-13.625,18.338-27.281,33.062-49.374,50.462l30.393,41.478c21.08-15.691,37.002-31.398,60.97-61.218L496.539,719.259z"/>
			<g id="g5848" transform="matrix(0.53294,0,0,0.53294,582.54,742.33)">
				<path id="path5850" inkscape:connector-curvature="0" fill="#FFFFFF" d="M-261.81,9.629V5.557
					c-4.401-2.126-8.108-5.464-10.701-9.572h-4.299C-273.578,2.112-268.262,6.977-261.81,9.629z"/>
				<path id="path5852" inkscape:connector-curvature="0" fill="#FFFFFF" d="M-239.339,5.557v4.072
					c6.454-2.653,11.768-7.517,15.002-13.646h-4.301C-231.229,0.093-234.938,3.431-239.339,5.557L-239.339,5.557z"/>
				<path id="path5854" inkscape:connector-curvature="0" fill="#FFFFFF" d="M-224.337-31.588
					c-3.234-6.129-8.548-10.993-15.002-13.646v4.073c4.401,2.126,8.11,5.462,10.701,9.573H-224.337z"/>
				<path id="path5856" inkscape:connector-curvature="0" fill="#FFFFFF" d="M-261.81-41.16v-4.073
					c-6.452,2.653-11.768,7.517-15.002,13.646h4.301C-269.918-35.696-266.211-39.035-261.81-41.16z"/>
				<path id="path5858" inkscape:connector-curvature="0" fill="#FFFFFF" d="M-245.436-1.214c0-1.035-0.31-1.995-0.836-2.802
					c-0.916-1.405-2.499-2.336-4.302-2.336c-1.803,0-3.386,0.929-4.304,2.336c-0.526,0.806-0.834,1.766-0.834,2.802
					c0,2.837,2.3,5.138,5.138,5.138C-247.735,3.924-245.436,1.623-245.436-1.214z"/>
				<path id="path5860" inkscape:connector-curvature="0" fill="#FFFFFF" d="M-241.294,12.965c0-3.898-3.17-7.068-7.066-7.068
					h-4.427c-3.896,0-7.066,3.17-7.066,7.068h1.12h1.12h14.082h1.12H-241.294z"/>
				<circle id="circle5862" fill="#FFFFFF" cx="-250.574" cy="-43.431" r="5.138"/>
				<path id="path5864" inkscape:connector-curvature="0" fill="#FFFFFF" d="M-241.699-31.588c-0.968-2.75-3.584-4.731-6.661-4.731
					h-4.427c-3.077,0-5.693,1.981-6.661,4.731c-0.258,0.733-0.405,1.517-0.405,2.336h2.239h14.082h2.239
					C-241.294-30.071-241.441-30.855-241.699-31.588z"/>
				<circle id="circle5866" fill="#FFFFFF" cx="-225.985" cy="-22.322" r="5.139"/>
				<path id="path5868" inkscape:connector-curvature="0" fill="#FFFFFF" d="M-223.771-15.21h-4.427
					c-3.896,0-7.066,3.17-7.066,7.066h2.239h14.082h2.237C-216.705-12.04-219.875-15.21-223.771-15.21z"/>
				<circle id="circle5870" fill="#FFFFFF" cx="-275.165" cy="-22.322" r="5.139"/>
				<path id="path5872" inkscape:connector-curvature="0" fill="#FFFFFF" d="M-282.205-8.144h14.082h2.239
					c0-3.896-3.17-7.066-7.066-7.066h-4.427c-3.898,0-7.068,3.17-7.068,7.066H-282.205z"/>
			</g>
		</g>
	</a>
	<a id="a3820" xlink:href="/language/photo" >
		<g id="language-photo" transform="translate(-1180,-14.286)">
			<path id="path4773" inkscape:connector-curvature="0" fill="#876B37" d="M539.11,638.182l-50.427-16.987
				c-7.436,21.603-16.289,40.831-32.077,64.103l41.885,30.791c15.341-21.335,26.802-42.23,40.619-77.908V638.182z"/>
			<path id="path5839" inkscape:connector-curvature="0" fill="#FFFFFF" d="M482.427,655.975h1.827
				c-0.025-1.449,0.499-1.803,2.056-1.803h1.146c1.557,0,2.042,0.334,2.056,1.803h1.403c0-2.876,1.03-5.333,4.465-5.333h3.756
				c3.435,0,4.465,2.457,4.465,5.333h8.488c0.69,0,1.256,0.566,1.256,1.257v18.493c0,0.69-0.565,1.256-1.256,1.256h-29.661
				c-0.691,0-1.256-0.565-1.256-1.256v-18.493C481.171,656.541,481.736,655.975,482.427,655.975z M497.273,661.254
				c-2.881,0-5.218,2.253-5.218,5.031s2.337,5.03,5.218,5.03c2.882,0,5.219-2.252,5.219-5.03S500.155,661.254,497.273,661.254z
				 M506.436,657.783c-1.68,0-1.68,2.726,0,2.726h3.777c1.681,0,1.681-2.726,0-2.726H506.436z M497.273,658.07
				c-4.543,0-8.227,3.683-8.227,8.226s3.684,8.226,8.227,8.226c4.544,0,8.227-3.683,8.227-8.226
				C505.499,661.751,501.817,658.07,497.273,658.07z"/>
		</g>
	</a>
	<a id="a3825" xlink:href="/language/sounds" >
		<g id="language-sounds" transform="translate(-1180,-14.286)">
			<path id="path4787" inkscape:connector-curvature="0" fill="#876B37" d="M554.344,543.483l-52.643,1.876
				c-0.163,22.939-3.386,45.601-11.648,72.38l49.927,16.663c8.496-26.054,12.478-53.656,13.047-89.13"/>
			<g id="g5825" transform="matrix(0.5292,0,0,0.5292,851.98,357.16)">
				<path id="path5827" inkscape:connector-curvature="0" fill="#FFFFFF" d="M-628.457,432.35c0,6.224,4.689,11.268,10.915,11.268
					c6.221,0,10.913-5.043,10.913-11.268v-4.547h-21.829V432.35z"/>
				<rect id="rect5829" x="-628.457" y="411.237" fill="#FFFFFF" width="21.829" height="3.763"/>
				<rect id="rect5831" x="-628.457" y="419.517" fill="#FFFFFF" width="21.829" height="3.763"/>
				<path id="path5833" inkscape:connector-curvature="0" fill="#FFFFFF" d="M-617.355,398.358c-5.217,0-9.594,3.849-10.877,8.367
					h21.755C-607.759,402.21-612.138,398.358-617.355,398.358z"/>
				<path id="path5835" inkscape:connector-curvature="0" fill="#FFFFFF" d="M-600.608,427.795v4.562
					c0,9.11-7.448,16.521-16.558,16.521c-9.111,0-16.558-7.409-16.558-16.521v-4.562h-4.516v4.562
					c0,10.838,8.28,19.784,18.817,20.915v7.64h-12.796v5.268h30.107v-5.268h-13.549v-7.64c10.537-1.129,18.817-10.076,18.817-20.915
					v-4.562H-600.608z"/>
			</g>
		</g>
	</a>
	<a id="a3892" xlink:href="/land/circle" >
		<g id="land-circle" transform="translate(-1180,-15.536)">
			<path id="path5795" inkscape:connector-curvature="0" fill="#29BA6E" d="M538.395,455.723l-48.117,15.926
				c7.019,21.742,11.456,43.522,11.478,71.611l51.179,0.036c-0.01-26.67-1.757-52.358-13.88-87.851L538.395,455.723z"/>
			<g id="g5797" transform="matrix(0.53294,0,0,0.53294,683.29,431.83)">
				<path id="path5799" inkscape:connector-curvature="0" fill="#FFFFFF" d="M-308.568,154.313v-4.073
					c-4.401-2.126-8.11-5.463-10.701-9.573h-4.301C-320.337,146.796-315.021,151.66-308.568,154.313z"/>
				<path id="path5801" inkscape:connector-curvature="0" fill="#FFFFFF" d="M-286.097,150.239v4.073
					c6.452-2.653,11.768-7.517,15.002-13.646h-4.301C-277.988,144.776-281.695,148.115-286.097,150.239z"/>
				<path id="path5803" inkscape:connector-curvature="0" fill="#FFFFFF" d="M-271.095,113.095
					c-3.234-6.128-8.55-10.993-15.002-13.645v4.073c4.401,2.126,8.11,5.463,10.701,9.573H-271.095z"/>
				<path id="path5805" inkscape:connector-curvature="0" fill="#FFFFFF" d="M-308.568,103.523V99.45
					c-6.454,2.652-11.77,7.517-15.002,13.645h4.301C-316.678,108.987-312.971,105.648-308.568,103.523z"/>
				<path id="path5807" inkscape:connector-curvature="0" fill="#FFFFFF" d="M-292.195,143.469c0-1.035-0.308-1.996-0.834-2.802
					c-0.916-1.405-2.501-2.336-4.304-2.336s-3.386,0.93-4.302,2.336c-0.528,0.805-0.836,1.767-0.836,2.802
					c0,2.837,2.3,5.138,5.138,5.138C-294.495,148.607-292.195,146.307-292.195,143.469z"/>
				<path id="path5809" inkscape:connector-curvature="0" fill="#FFFFFF" d="M-288.052,157.648c0-3.897-3.17-7.067-7.066-7.067
					h-4.427c-3.898,0-7.068,3.17-7.068,7.067h1.12h1.12h14.082h1.12H-288.052z"/>
				<circle id="circle5811" fill="#FFFFFF" cx="-297.333" cy="101.253" r="5.139"/>
				<path id="path5813" inkscape:connector-curvature="0" fill="#FFFFFF" d="M-288.459,113.095c-0.968-2.75-3.584-4.73-6.661-4.73
					h-4.425c-3.077,0-5.695,1.981-6.663,4.73c-0.257,0.733-0.405,1.517-0.405,2.336h2.239h14.082h2.239
					C-288.052,114.613-288.2,113.828-288.459,113.095z"/>
				<circle id="circle5815" fill="#FFFFFF" cx="-272.742" cy="122.361" r="5.138"/>
				<path id="path5817" inkscape:connector-curvature="0" fill="#FFFFFF" d="M-270.529,129.473h-4.427
					c-3.898,0-7.068,3.17-7.068,7.066h2.239h14.082h2.239C-263.463,132.643-266.633,129.473-270.529,129.473z"/>
				<circle id="circle5819" fill="#FFFFFF" cx="-321.922" cy="122.361" r="5.138"/>
				<path id="path5821" inkscape:connector-curvature="0" fill="#FFFFFF" d="M-328.964,136.539h14.084h2.239
					c0-3.896-3.17-7.066-7.066-7.066h-4.429c-3.896,0-7.068,3.17-7.068,7.066H-328.964z"/>
			</g>
		</g>
	</a>
	<a id="a3885" xlink:href="/land/trad" >
		<g id="land-trad" transform="translate(-1180,-14.286)">
			<path id="path5570" inkscape:connector-curvature="0" fill="#29BA6E" d="M498.113,374.164l-41.418,29.538
				c13.017,18.774,22.639,37.254,32.06,63.75l49.696-15.878c-7.729-25.516-24.627-59.408-40.335-77.404L498.113,374.164z"/>
			<g id="g5574">
				<path id="path5576" inkscape:connector-curvature="0" fill="#FFFFFF" d="M483.249,410.775l-0.409,24.16l33.023,0.56l0.409-24.16
					L483.249,410.775z M492.611,412.394l6.396,0.108l-0.041,2.468l-6.396-0.108L492.611,412.394z M504.229,422.397
					c0.584,0.392,0.57,1.227-0.027,1.599l-6.991,4.193c-0.632,0.372-1.458-0.094-1.446-0.824l0.147-8.656
					c0.012-0.73,0.819-1.168,1.473-0.775L504.229,422.397z M490.756,433.574l-6.396-0.108l0.042-2.468l6.396,0.108L490.756,433.574z
					 M491.073,414.872l-6.396-0.108l0.042-2.468l6.396,0.108L491.073,414.872z M498.647,433.708l-6.396-0.108l0.041-2.468
					l6.396,0.108L498.647,433.708z M506.503,433.84l-6.396-0.108l0.042-2.468l6.396,0.108L506.503,433.84z M506.821,415.139
					l-6.396-0.108l0.042-2.468l6.396,0.108L506.821,415.139z M514.394,433.974l-6.396-0.108l0.041-2.468l6.396,0.108
					L514.394,433.974z M514.711,415.272l-6.396-0.108l0.042-2.468l6.396,0.108L514.711,415.272z"/>
			</g>
		</g>
	</a>
	<a id="a3924" xlink:href="/land/interview" >
		<g id="land-interview" transform="translate(-1181.1,-14.993)">
			<path id="path4777" inkscape:connector-curvature="0" fill="#29BA6E" d="M436.681,310.385l-30.713,41.916
				c18.19,13.821,32.548,27.942,49.712,50.218l41.448-30.385c-15.467-21.248-30.881-37.468-60.445-61.749L436.681,310.385z"/>
			<g id="g5744" transform="translate(-57.5)">
				
					<path id="path5736" inkscape:connector-curvature="0" fill="#FFFFFF" stroke="#FFFFFF" stroke-width="0.5" stroke-linecap="square" d="
					M491.254,369.333c-0.23-0.161-0.418-0.407-0.418-0.547c0-0.14,0.539-1.511,1.198-3.047l1.198-2.792l-0.553-1.102
					c-1.217-2.426-1.643-6.152-0.992-8.69c0.733-2.865,2.641-5.735,4.866-7.323c2.095-1.495,5.023-2.548,7.085-2.548
					c0.479,0,0.985-0.146,1.308-0.375c0.961-0.684,2.884-1.494,4.291-1.807c1.02-0.227,1.973-0.287,3.583-0.224
					c3.618,0.141,5.944,1.175,8.614,3.831c1.246,1.239,1.689,1.847,2.403,3.293c1.405,2.847,1.779,5.734,1.125,8.708l-0.306,1.395
					l1.812,3.219c1.779,3.161,2.037,3.863,1.586,4.314c-0.343,0.343-0.562,0.303-4.058-0.743c-3.596-1.075-3.218-1.084-5.125,0.126
					c-1.802,1.144-4.631,1.971-6.736,1.971c-0.63,0-1.289,0.204-2.383,0.737c-3.479,1.696-7.301,1.76-10.805,0.181
					c-0.661-0.298-1.304-0.542-1.428-0.542s-1.446,0.508-2.938,1.129c-1.49,0.621-2.756,1.129-2.811,1.129
					C491.716,369.626,491.484,369.494,491.254,369.333L491.254,369.333z M515.859,364.484c0.775-0.273,2.088-0.96,2.917-1.528
					l1.508-1.031l2.445,0.745c1.346,0.41,2.504,0.724,2.574,0.699c0.069-0.025-0.509-1.181-1.287-2.568l-1.414-2.522l0.346-1.053
					c0.537-1.634,0.49-5.34-0.089-7.016c-1.648-4.771-6.455-7.972-11.44-7.621c-4.217,0.297-8.028,2.98-9.667,6.804
					c-0.466,1.087-0.944,3.407-0.94,4.561c0.019,4.905,3.77,9.654,8.588,10.871C511.125,365.26,514.103,365.103,515.859,364.484
					L515.859,364.484z"/>
				
					<path id="path5738" inkscape:connector-curvature="0" fill="#FFFFFF" stroke="#FFFFFF" stroke-width="0.5" stroke-linecap="square" d="
					M506.714,350.998c-0.517-0.208-0.668-0.818-0.324-1.309c0.265-0.377,0.428-0.389,5.789-0.389c5.938,0,6.044,0.018,5.907,0.973
					c-0.118,0.823-0.659,0.904-5.989,0.894C509.354,351.163,506.931,351.087,506.714,350.998L506.714,350.998z"/>
				
					<path id="path5740" inkscape:connector-curvature="0" fill="#FFFFFF" stroke="#FFFFFF" stroke-width="0.5" stroke-linecap="square" d="
					M506.381,354.739c-0.182-0.259-0.324-0.6-0.13-0.799c0.688-0.706,0.24-0.412,5.749-0.452c5.892-0.043,6.117-0.023,6.117,0.788
					c0,0.839-0.156,0.861-5.954,0.861C506.774,355.137,506.655,355.129,506.381,354.739L506.381,354.739z"/>
				
					<path id="path5742" inkscape:connector-curvature="0" fill="#FFFFFF" stroke="#FFFFFF" stroke-width="0.5" stroke-linecap="square" d="
					M506.367,358.856c-0.377-0.538-0.369-0.634,0.083-1.087c0.359-0.358,0.628-0.376,5.727-0.376c5.776,0,5.94,0.028,5.94,1.011
					c0,0.85-0.146,0.871-5.954,0.871C506.689,359.274,506.658,359.272,506.367,358.856L506.367,358.856z"/>
			</g>
		</g>
	</a>
	<a id="a3909" xlink:href="/land/photo" >
		<g id="land-photo" transform="translate(-1180,-14.286)">
			<path id="path4779" inkscape:connector-curvature="0" fill="#29BA6E" d="M355.994,266.767l-17.438,50.273
				c21.534,7.629,41.01,17.455,64.139,33.451l31.103-42.207c-21.194-15.527-42.247-27.374-77.795-41.509L355.994,266.767z"/>
			<path id="path5611" inkscape:connector-curvature="0" fill="#FFFFFF" d="M369.158,298.83h1.828
				c-0.025-1.45,0.498-1.803,2.055-1.803h1.146c1.557,0,2.042,0.334,2.055,1.803h1.404c0-2.876,1.029-5.333,4.465-5.333h3.755
				c3.436,0,4.466,2.457,4.466,5.333h8.487c0.691,0,1.256,0.566,1.256,1.256v18.493c0,0.691-0.564,1.256-1.256,1.256h-29.661
				c-0.69,0-1.256-0.565-1.256-1.256v-18.493C367.903,299.395,368.468,298.83,369.158,298.83z M384.005,304.109
				c-2.882,0-5.218,2.252-5.218,5.031s2.336,5.03,5.218,5.03s5.219-2.252,5.219-5.03S386.887,304.109,384.005,304.109z
				 M393.168,300.637c-1.681,0-1.681,2.726,0,2.726h3.777c1.68,0,1.68-2.726,0-2.726H393.168z M384.005,300.924
				c-4.543,0-8.227,3.683-8.227,8.226s3.683,8.226,8.227,8.226c4.543,0,8.226-3.683,8.226-8.226
				C392.231,304.606,388.548,300.924,384.005,300.924z"/>
		</g>
	</a>
	<a id="a3914" xlink:href="/land/sounds" >
		<g id="land-sounds" transform="translate(-1180,-14.286)">
			<path id="path4781" inkscape:connector-curvature="0" fill="#29BA6E" d="M261.167,249.696l-0.344,53.21
				c22.939,0.107,48.814,4.579,75.612,12.776l16.542-49.968c-25.063-7.895-53.597-14.067-91.81-16.024L261.167,249.696z"/>
			<g id="g5588" transform="matrix(0.5292,0,0,0.5292,551.98,-49.591)">
				<path id="path5590" inkscape:connector-curvature="0" fill="#FFFFFF" d="M-488.241,622.456c0,6.224,4.687,11.269,10.913,11.269
					c6.221,0,10.913-5.044,10.913-11.269v-4.546h-21.827V622.456z"/>
				<rect id="rect5592" x="-488.241" y="601.345" fill="#FFFFFF" width="21.827" height="3.764"/>
				<rect id="rect5594" x="-488.241" y="609.624" fill="#FFFFFF" width="21.827" height="3.764"/>
				<path id="path5596" inkscape:connector-curvature="0" fill="#FFFFFF" d="M-477.139,588.467c-5.219,0-9.594,3.849-10.877,8.366
					h21.753C-467.545,592.316-471.923,588.467-477.139,588.467L-477.139,588.467z"/>
				<path id="path5598" inkscape:connector-curvature="0" fill="#FFFFFF" d="M-460.393,617.903v4.562
					c0,9.111-7.45,16.522-16.56,16.522s-16.557-7.411-16.557-16.522v-4.562h-4.517v4.562c0,10.838,8.28,19.784,18.817,20.916v7.64
					h-12.796v5.269h30.107v-5.269h-13.549v-7.64c10.539-1.13,18.817-10.078,18.817-20.916v-4.562H-460.393z"/>
			</g>
		</g>
	</a>
	<a id="a3976" xlink:href="/spirit/trad" >
		<g id="spirit-trad" transform="translate(-1180,-14.286)">
			<path id="path4749" inkscape:connector-curvature="0" fill="#BA8013" d="M167.077,265.449l16.935,49.111
				c21.836-6.715,46.314-11,74.419-11.949l0.188-51.463c-26.668-0.362-55.883,2.673-91.539,14.3H167.077z"/>
			<g id="g5024">
				<path id="path5026" inkscape:connector-curvature="0" fill="#FFFFFF" d="M198.118,265.922v26.764h36.584v-26.764H198.118z
					 M208.516,267.539h7.086v2.734h-7.086V267.539z M221.571,278.399c0.655,0.423,0.655,1.348,0,1.771l-7.663,4.775
					c-0.693,0.423-1.617-0.077-1.617-0.886v-9.589c0-0.809,0.886-1.309,1.617-0.886L221.571,278.399z M206.861,291.03h-7.086v-2.734
					h7.086V291.03z M206.861,270.312h-7.086v-2.734h7.086V270.312z M215.602,291.03h-7.086v-2.734h7.086V291.03z M224.305,291.03
					h-7.086v-2.734h7.086V291.03z M224.305,270.312h-7.086v-2.734h7.086V270.312z M233.046,291.03h-7.085v-2.734h7.085V291.03z
					 M233.046,270.312h-7.085v-2.734h7.085V270.312z"/>
			</g>
		</g>
	</a>
	<a id="a3952" xlink:href="/spirit/circle" >
		<g id="spirit-circle" transform="translate(-1180,-14.286)">
			<path id="path4751" inkscape:connector-curvature="0" fill="#BA8013" d="M86.264,305.875l30.99,43.255
				c18.659-13.183,37.923-23.416,64.335-33.07l-16.517-49.76c-24.918,8.346-46.747,18.702-78.812,39.575H86.264z"/>
			<g id="icon-spirit-circle" transform="matrix(0.53294,0,0,0.53294,164.29,174.83)">
				<path id="path4932" inkscape:connector-curvature="0" fill="#FFFFFF" d="M-67.698,273.007v-4.073
					c-4.401-2.126-8.11-5.463-10.701-9.573H-82.7C-79.467,265.49-74.151,270.354-67.698,273.007z"/>
				<path id="path4934" inkscape:connector-curvature="0" fill="#FFFFFF" d="M-45.227,268.933v4.073
					c6.452-2.652,11.768-7.516,15-13.645h-4.299C-37.118,263.47-40.825,266.808-45.227,268.933z"/>
				<path id="path4936" inkscape:connector-curvature="0" fill="#FFFFFF" d="M-30.227,231.789c-3.232-6.128-8.548-10.993-15-13.646
					v4.073c4.401,2.126,8.108,5.463,10.701,9.573H-30.227z"/>
				<path id="path4938" inkscape:connector-curvature="0" fill="#FFFFFF" d="M-67.698,222.217v-4.073
					c-6.454,2.653-11.77,7.517-15.002,13.646h4.299C-75.808,227.681-72.101,224.342-67.698,222.217z"/>
				<path id="path4940" inkscape:connector-curvature="0" fill="#FFFFFF" d="M-51.325,262.163c0-1.035-0.308-1.996-0.834-2.802
					c-0.918-1.406-2.501-2.336-4.304-2.336c-1.803,0-3.386,0.93-4.304,2.336c-0.526,0.805-0.834,1.767-0.834,2.802
					c0,2.837,2.3,5.138,5.138,5.138C-53.625,267.301-51.325,265.001-51.325,262.163z"/>
				<path id="path4942" inkscape:connector-curvature="0" fill="#FFFFFF" d="M-47.184,276.342c0-3.897-3.17-7.066-7.066-7.066
					h-4.427c-3.896,0-7.066,3.17-7.066,7.066h1.12h1.12h14.082h1.12H-47.184z"/>
				<circle id="circle4944" fill="#FFFFFF" cx="-56.463" cy="219.947" r="5.139"/>
				<path id="path4946" inkscape:connector-curvature="0" fill="#FFFFFF" d="M-47.589,231.789c-0.968-2.75-3.584-4.73-6.661-4.73
					h-4.427c-3.077,0-5.693,1.98-6.661,4.73c-0.258,0.733-0.405,1.517-0.405,2.336h2.239h14.082h2.239
					C-47.184,233.307-47.331,232.522-47.589,231.789z"/>
				<circle id="circle4948" fill="#FFFFFF" cx="-31.872" cy="241.055" r="5.138"/>
				<path id="path4950" inkscape:connector-curvature="0" fill="#FFFFFF" d="M-29.659,248.167h-4.427
					c-3.898,0-7.068,3.17-7.068,7.066h2.239h14.082h2.239C-22.593,251.337-25.763,248.167-29.659,248.167z"/>
				<circle id="circle4952" fill="#FFFFFF" cx="-81.052" cy="241.055" r="5.138"/>
				<path id="path4954" inkscape:connector-curvature="0" fill="#FFFFFF" d="M-88.094,255.233h14.082h2.239
					c0-3.896-3.17-7.066-7.066-7.066h-4.427c-3.896,0-7.068,3.17-7.068,7.066H-88.094z"/>
			</g>
		</g>
	</a>
	<a id="a3942" xlink:href="/spirit/sounds" >
		<g id="spirit-sounds" transform="translate(-1180,-14.286)">
			<path id="path4759" inkscape:connector-curvature="0" fill="#BA8013" d="M22.929,369.851l41.777,31.382
				c13.796-18.21,29.062-33.792,51.314-50.985l-30.799-42.427c-21.903,15.701-41.071,33.38-62.296,62.027L22.929,369.851z"/>
			<g id="g5267" transform="matrix(0.5292,0,0,0.5292,245.98,49.409)">
				<path id="path4991" inkscape:connector-curvature="0" fill="#FFFFFF" d="M-345.222,576.186c0,6.224,4.689,11.269,10.913,11.269
					c6.223,0,10.913-5.044,10.913-11.269v-4.546h-21.827V576.186z"/>
				<rect id="rect4993" x="-345.222" y="555.074" fill="#FFFFFF" width="21.827" height="3.764"/>
				<rect id="rect4995" x="-345.222" y="563.353" fill="#FFFFFF" width="21.827" height="3.763"/>
				<path id="path4997" inkscape:connector-curvature="0" fill="#FFFFFF" d="M-334.121,542.196c-5.219,0-9.594,3.849-10.877,8.365
					h21.753C-324.527,546.046-328.904,542.196-334.121,542.196L-334.121,542.196z"/>
				<path id="path4999" inkscape:connector-curvature="0" fill="#FFFFFF" d="M-317.374,571.633v4.562
					c0,9.111-7.448,16.521-16.56,16.521c-9.109,0-16.557-7.41-16.557-16.521v-4.562h-4.516v4.562
					c0,10.838,8.278,19.784,18.815,20.916v7.639h-12.794v5.269h30.105v-5.269h-13.547v-7.639
					c10.537-1.13,18.815-10.078,18.815-20.916v-4.562H-317.374z"/>
			</g>
		</g>
	</a>
	<a id="a3933" xlink:href="/spirit/interview" >
		<g id="spirit-interview" transform="translate(-1180,-15.346)">
			<path id="path4761" inkscape:connector-curvature="0" fill="#BA8013" d="M-20.407,450.55l50.361,16.854
				c7.52-21.573,17.246-41.097,33.125-64.306l-42.363-30.881c-15.425,21.278-27.167,42.721-41.123,78.337V450.55z"/>
			<g id="g5750" transform="translate(-631.5,87)">
				<path id="path5752" inkscape:connector-curvature="0" fill="#FFFFFF" d="M632.953,347.902c-0.229-0.161-0.418-0.407-0.418-0.547
					c0-0.14,0.539-1.511,1.198-3.047l1.199-2.792l-0.553-1.102c-1.217-2.426-1.643-6.152-0.993-8.69
					c0.733-2.865,2.641-5.735,4.867-7.323c2.095-1.495,5.023-2.548,7.085-2.548c0.478,0,0.984-0.146,1.307-0.375
					c0.961-0.685,2.885-1.495,4.292-1.808c1.02-0.227,1.972-0.287,3.583-0.224c3.618,0.141,5.944,1.176,8.614,3.831
					c1.245,1.239,1.689,1.847,2.403,3.293c1.405,2.847,1.778,5.735,1.125,8.708l-0.307,1.395l1.812,3.219
					c1.779,3.161,2.037,3.863,1.586,4.314c-0.343,0.343-0.562,0.303-4.058-0.742c-3.595-1.075-3.218-1.084-5.124,0.125
					c-1.802,1.144-4.631,1.971-6.737,1.971c-0.629,0-1.288,0.204-2.382,0.737c-3.48,1.696-7.302,1.76-10.806,0.181
					c-0.661-0.298-1.304-0.542-1.428-0.542s-1.445,0.508-2.937,1.129c-1.491,0.621-2.756,1.129-2.812,1.129
					C633.417,348.195,633.184,348.063,632.953,347.902L632.953,347.902z M657.56,343.053c0.775-0.273,2.088-0.96,2.916-1.528
					l1.508-1.031l2.446,0.745c1.346,0.409,2.503,0.724,2.573,0.698c0.07-0.025-0.509-1.181-1.286-2.568l-1.414-2.522l0.346-1.053
					c0.536-1.634,0.489-5.34-0.09-7.016c-1.647-4.771-6.454-7.972-11.44-7.621c-4.217,0.297-8.027,2.98-9.667,6.804
					c-0.466,1.087-0.943,3.407-0.939,4.561c0.018,4.905,3.77,9.654,8.588,10.871C652.824,343.828,655.803,343.672,657.56,343.053
					L657.56,343.053z"/>
				<path id="path5754" inkscape:connector-curvature="0" fill="#FFFFFF" d="M648.413,329.567c-0.517-0.208-0.667-0.818-0.324-1.309
					c0.265-0.377,0.428-0.389,5.79-0.389c5.938,0,6.044,0.018,5.906,0.973c-0.117,0.823-0.658,0.904-5.988,0.894
					C651.055,329.732,648.632,329.656,648.413,329.567L648.413,329.567z"/>
				<path id="path5756" inkscape:connector-curvature="0" fill="#FFFFFF" d="M648.082,333.308c-0.182-0.259-0.325-0.6-0.131-0.799
					c0.688-0.706,0.241-0.412,5.75-0.452c5.891-0.043,6.116-0.023,6.116,0.788c0,0.838-0.155,0.861-5.954,0.861
					C648.474,333.706,648.356,333.698,648.082,333.308L648.082,333.308z"/>
				<path id="path5758" inkscape:connector-curvature="0" fill="#FFFFFF" d="M648.068,337.425c-0.377-0.538-0.37-0.634,0.083-1.087
					c0.358-0.359,0.627-0.376,5.726-0.376c5.777,0,5.94,0.028,5.94,1.011c0,0.85-0.145,0.871-5.954,0.871
					C648.39,337.844,648.359,337.841,648.068,337.425L648.068,337.425z"/>
			</g>
		</g>
	</a>
	<a id="a3877" xlink:href="/spirit/photo" >
		<g id="spirit-photo" transform="translate(-1180,-14.286)">
			<path id="path4783" inkscape:connector-curvature="0" fill="#BA8013" d="M-35.36,543.385l52.455-0.019
				c0.235-22.938,3.722-47.283,12.068-74.035l-49.874-16.821c-8.578,26.027-13.97,55.401-14.649,90.876V543.385z"/>
			<path id="path4899" inkscape:connector-curvature="0" fill="#FFFFFF" d="M-20.956,492.377h1.827
				c-0.025-1.45,0.498-1.803,2.056-1.803h1.146c1.557,0,2.042,0.333,2.056,1.803h1.403c0-2.876,1.03-5.333,4.465-5.333h3.756
				c3.435,0,4.465,2.457,4.465,5.333h8.487c0.691,0,1.257,0.566,1.257,1.256v18.493c0,0.691-0.565,1.256-1.257,1.256h-29.66
				c-0.691,0-1.257-0.565-1.257-1.256v-18.493C-22.213,492.942-21.647,492.377-20.956,492.377L-20.956,492.377z M-6.11,497.656
				c-2.882,0-5.218,2.252-5.218,5.031s2.336,5.031,5.218,5.031s5.219-2.252,5.219-5.031C-0.891,499.909-3.228,497.656-6.11,497.656z
				 M3.053,494.184c-1.681,0-1.68,2.726,0,2.726H6.83c1.68,0,1.681-2.726,0-2.726H3.053z M-6.11,494.471
				c-4.543,0-8.227,3.683-8.227,8.226s3.684,8.226,8.227,8.226c4.544,0,8.227-3.683,8.227-8.226
				C2.116,498.153-1.567,494.471-6.11,494.471z"/>
		</g>
	</a>
	<g>
		<defs>
			<circle id="SVGID_3_" cx="-920.857" cy="531.023" r="241.085"/>
		</defs>
		<clipPath id="SVGID_4_">
			<use xlink:href="#SVGID_3_"  overflow="visible"/>
		</clipPath>
		<g id="g4695" transform="translate(-1225.1,-109.44)" clip-path="url(#SVGID_4_)">
			<path id="path4697" inkscape:connector-curvature="0" fill="none" stroke="#000000" stroke-width="5" d="M304.243,302.126
				v676.673"/>
			<path id="path4699" inkscape:connector-curvature="0" fill="none" stroke="#000000" stroke-width="5" d="M642.579,640.462
				H-34.094"/>
		</g>
	</g>
	<g>
		<defs>
			<rect id="SVGID_5_" x="-1163.064" y="-39.473" width="241.748" height="570.533"/>
		</defs>
		<defs>
			<circle id="SVGID_6_" cx="-919.759" cy="532.822" r="241.085"/>
		</defs>
		<clipPath id="SVGID_7_">
			<use xlink:href="#SVGID_5_"  overflow="visible"/>
		</clipPath>
		<clipPath id="SVGID_8_" clip-path="url(#SVGID_7_)">
			<use xlink:href="#SVGID_6_"  overflow="visible"/>
		</clipPath>
		
			<rect id="rect4705" x="-1259.452" y="194.711" clip-path="url(#SVGID_8_)" fill="none" stroke="#BA8013" stroke-width="13" stroke-miterlimit="10" width="331.924" height="329.666"/>
	</g>
	<g>
		<defs>
			<rect id="SVGID_9_" x="-920.376" y="531.052" width="241.747" height="570.533"/>
		</defs>
		<defs>
			<circle id="SVGID_10_" cx="-921.933" cy="529.291" r="241.085"/>
		</defs>
		<clipPath id="SVGID_11_">
			<use xlink:href="#SVGID_9_"  overflow="visible"/>
		</clipPath>
		<clipPath id="SVGID_12_" clip-path="url(#SVGID_11_)">
			<use xlink:href="#SVGID_10_"  overflow="visible"/>
		</clipPath>
		
			<rect id="rect4707" x="-914.165" y="537.736" clip-path="url(#SVGID_12_)" fill="none" stroke="#876B37" stroke-width="13" stroke-miterlimit="10" width="331.924" height="329.666"/>
	</g>
	<g>
		<defs>
			<circle id="SVGID_13_" cx="-920.857" cy="531.023" r="241.085"/>
		</defs>
		<clipPath id="SVGID_14_">
			<use xlink:href="#SVGID_13_"  overflow="visible"/>
		</clipPath>
		<g id="g4711" transform="translate(-1225.1,-109.44)" clip-path="url(#SVGID_14_)">
			<path id="path4713" inkscape:connector-curvature="0" fill="none" stroke="#000000" stroke-width="5" d="M642.579,640.462
				H-34.094"/>
			<path id="path4715" inkscape:connector-curvature="0" fill="none" stroke="#000000" stroke-width="5" d="M304.243,302.126
				v676.673"/>
		</g>
	</g>
	<g id="g248">
		<g>
			<defs>
				<rect id="SVGID_15_" x="-1163.064" y="531.052" width="241.748" height="570.533"/>
			</defs>
			<defs>
				<circle id="SVGID_16_" cx="-919.759" cy="529.291" r="241.085"/>
			</defs>
			<clipPath id="SVGID_17_">
				<use xlink:href="#SVGID_15_"  overflow="visible"/>
			</clipPath>
			<clipPath id="SVGID_18_" clip-path="url(#SVGID_17_)">
				<use xlink:href="#SVGID_16_"  overflow="visible"/>
			</clipPath>
			
				<rect id="rect4718" x="-1259.452" y="537.736" clip-path="url(#SVGID_18_)" fill="none" stroke="#ED5D01" stroke-width="13" stroke-miterlimit="10" width="331.924" height="329.666"/>
		</g>
		<g>
			<defs>
				<rect id="SVGID_19_" x="-920.376" y="-39.661" width="241.747" height="570.532"/>
			</defs>
			<defs>
				<circle id="SVGID_20_" cx="-921.933" cy="532.633" r="241.085"/>
			</defs>
			<clipPath id="SVGID_21_">
				<use xlink:href="#SVGID_19_"  overflow="visible"/>
			</clipPath>
			<clipPath id="SVGID_22_" clip-path="url(#SVGID_21_)">
				<use xlink:href="#SVGID_20_"  overflow="visible"/>
			</clipPath>
			
				<rect id="rect4722" x="-914.165" y="194.523" clip-path="url(#SVGID_22_)" fill="none" stroke="#29BA6E" stroke-width="13" stroke-miterlimit="10" width="331.924" height="329.666"/>
		</g>
		<g>
			<defs>
				<circle id="SVGID_23_" cx="-920.857" cy="531.023" r="241.085"/>
			</defs>
			<clipPath id="SVGID_24_">
				<use xlink:href="#SVGID_23_"  overflow="visible"/>
			</clipPath>
			<g id="g4726" transform="translate(-1225.1,-109.44)" clip-path="url(#SVGID_24_)">
				<path id="path4728" inkscape:connector-curvature="0" fill="none" stroke="#000000" stroke-width="5" d="M304.243,302.126
					v676.673"/>
				<path id="path4730" inkscape:connector-curvature="0" fill="none" stroke="#000000" stroke-width="5" d="M642.579,640.462
					H-34.094"/>
			</g>
		</g>
	</g>
	<a id="a3882">
		<circle id="circle5323" fill="none" stroke="#000000" stroke-width="5" cx="-920.82" cy="531.015" r="295.758"/>
	</a>
	<a id="a3793">
		<circle id="circle4724" fill="none" stroke="#000000" stroke-width="5" cx="-920.82" cy="531.015" r="241.085"/>
	</a>
	<g id="g4918" transform="translate(-174.54,287.26)" display="none">
		<rect id="rect4920" x="-574.982" y="-129.136" display="inline" width="1031.824" height="950.763"/>
	</g>
</g>
<image overflow="visible" width="4592" height="2584" xlink:href="spirit_new.JPG"  transform="matrix(0.1061 0 0 0.1061 -926.9998 23.89)">
</image>
</svg>
