<?xml version="1.0" encoding="utf-8"?>
<!-- Generator: Adobe Illustrator 20.1.0, SVG Export Plug-In . SVG Version: 6.00 Build 0)  -->
<svg version="1.1" xmlns="http://www.w3.org/2000/svg" xmlns:xlink="http://www.w3.org/1999/xlink" x="0px" y="0px"
	 viewBox="0 0 2580 2580" style="enable-background:new 0 0 2580 2580;" xml:space="preserve">
<style type="text/css">
	.Drop_x0020_Shadow{fill:none;}
	.Outer_x0020_Glow_x0020_5_x0020_pt{fill:none;}
	.Blue_x0020_Neon{fill:none;stroke:#8AACDA;stroke-width:7;stroke-linecap:round;stroke-linejoin:round;}
	.Chrome_x0020_Highlight{fill:url(#SVGID_1_);stroke:#FFFFFF;stroke-width:0.3629;stroke-miterlimit:1;}
	.Jive_GS{fill:#FFDD00;}
	.Alyssa_GS{fill:#A6D0E4;}
	.st0{display:none;}
	.st1{display:inline;}
	.st2{stroke:#000000;stroke-width:0.5;stroke-miterlimit:10;}
	.st3{fill:#DFDFDF;stroke:#000000;stroke-width:0.5;stroke-miterlimit:10;}
	.st4{fill:#808080;stroke:#000000;stroke-width:0.5;stroke-miterlimit:10;}
	.st5{fill:#404040;stroke:#000000;stroke-width:0.5;stroke-miterlimit:10;}
	.st6{fill:#9F9F9F;stroke:#000000;stroke-width:0.5;stroke-miterlimit:10;}
	.st7{fill:#202020;stroke:#000000;stroke-width:0.5;stroke-miterlimit:10;}
	.st8{fill:#BFBFBF;stroke:#000000;stroke-width:0.5;stroke-miterlimit:10;}
	.st9{fill:#606060;stroke:#000000;stroke-width:0.5;stroke-miterlimit:10;}
	.st10{stroke:#000000;stroke-miterlimit:10;}
	.st11{fill:#9F9F9F;stroke:#000000;stroke-miterlimit:10;}
	.st12{fill:#202020;stroke:#000000;stroke-miterlimit:10;}
	.st13{fill:#DFDFDF;stroke:#000000;stroke-miterlimit:10;}
	.st14{fill:#808080;stroke:#000000;stroke-miterlimit:10;}
	.st15{fill:#606060;stroke:#000000;stroke-miterlimit:10;}
	.st16{fill:#EDEDED;stroke:#1D1D1B;stroke-linecap:round;stroke-miterlimit:10;}
	.st17{fill:#FF931E;}
	.st18{fill:#3FA9F5;}
	.st19{fill:#803E56;}
	.st20{fill:#7AC943;}
	.st21{fill:#FFFF00;}
	.st22{fill:#401F2B;}
	.st23{fill:none;stroke:#000000;stroke-width:3;stroke-miterlimit:10;}
	.st24{fill:none;stroke:#1D1D1B;stroke-width:3;stroke-linecap:round;stroke-miterlimit:10;}
	.st25{fill:#ED1C24;}
	.st26{fill:none;stroke:#1A1A1A;stroke-width:3;stroke-linecap:round;stroke-linejoin:round;}
	.st27{fill:none;stroke:#000000;stroke-width:3;stroke-linecap:round;stroke-linejoin:round;}
	.st28{fill:none;stroke:url(#SVGID_2_);stroke-width:0.5;stroke-linecap:round;stroke-linejoin:round;}
	.st29{fill:none;stroke:url(#SVGID_3_);stroke-width:0.5;stroke-linecap:round;stroke-linejoin:round;}
	.st30{fill:none;}
</style>
<linearGradient id="SVGID_1_" gradientUnits="userSpaceOnUse" x1="0" y1="0" x2="6.123234e-17" y2="-1">
	<stop  offset="0" style="stop-color:#656565"/>
	<stop  offset="0.618" style="stop-color:#1B1B1B"/>
	<stop  offset="0.6292" style="stop-color:#545454"/>
	<stop  offset="0.9831" style="stop-color:#3E3E3E"/>
</linearGradient>
<g id="Graph_data" class="st0">
	<g>
		<g class="st1">
			<g>
				<g>
					<path class="st2" d="M1300.7,1290.2V153.1c125.6,0,231.9,16.8,351.4,55.7L1300.7,1290.2z"/>
				</g>
			</g>
			<g>
				<g>
					<path class="st3" d="M1300.7,1290.2l351.4-1081.4c119.4,38.8,215.4,87.7,317,161.5L1300.7,1290.2z"/>
				</g>
			</g>
			<g>
				<g>
					<path class="st4" d="M1300.7,1290.2L1969,370.3c101.6,73.8,177.7,149.9,251.6,251.6L1300.7,1290.2z"/>
				</g>
			</g>
			<g>
				<g>
					<path class="st5" d="M1300.7,1290.2l919.9-668.3c73.8,101.6,122.7,197.5,161.5,317L1300.7,1290.2z"/>
				</g>
			</g>
			<g>
				<g>
					<path class="st6" d="M1300.7,1290.2l1081.4-351.4c38.8,119.4,55.7,225.8,55.7,351.4H1300.7z"/>
				</g>
			</g>
			<g>
				<g>
					<path class="st7" d="M1300.7,1290.2h1137.1c0,125.6-16.8,231.9-55.7,351.4L1300.7,1290.2z"/>
				</g>
			</g>
			<g>
				<g>
					<path class="st8" d="M1300.7,1290.2l1081.4,351.4c-38.8,119.4-87.7,215.4-161.5,317L1300.7,1290.2z"/>
				</g>
			</g>
			<g>
				<g>
					<path class="st9" d="M1300.7,1290.2l919.9,668.3c-73.8,101.6-149.9,177.7-251.6,251.6L1300.7,1290.2z"/>
				</g>
			</g>
			<g>
				<g>
					<path class="st2" d="M1300.7,1290.2l668.3,919.9c-101.6,73.8-197.5,122.7-317,161.5L1300.7,1290.2z"/>
				</g>
			</g>
			<g>
				<g>
					<path class="st3" d="M1300.7,1290.2l351.4,1081.4c-119.4,38.8-225.8,55.7-351.4,55.7V1290.2z"/>
				</g>
			</g>
			<g>
				<g>
					<path class="st4" d="M1300.7,1290.2v1137.1c-104.2,0-193.6-11.8-294.3-38.7L1300.7,1290.2z"/>
				</g>
			</g>
			<g>
				<g>
					<path class="st5" d="M1300.7,1290.2l-294.3,1098.3c-100.7-27-184-61.5-274.2-113.6L1300.7,1290.2z"/>
				</g>
			</g>
			<g>
				<g>
					<path class="st6" d="M1300.7,1290.2l-568.5,984.7c-90.3-52.1-161.8-107-235.5-180.7L1300.7,1290.2z"/>
				</g>
			</g>
			<g>
				<g>
					<path class="st7" d="M1300.7,1290.2l-804,804C423,2020.5,368.1,1949,316,1858.7L1300.7,1290.2z"/>
				</g>
			</g>
			<g>
				<g>
					<path class="st8" d="M1300.7,1290.2L316,1858.7c-52.1-90.3-86.6-173.5-113.6-274.2L1300.7,1290.2z"/>
				</g>
			</g>
			<g>
				<g>
					<path class="st9" d="M1300.7,1290.2L202.4,1584.4c-27-100.7-38.7-190-38.7-294.3H1300.7z"/>
				</g>
			</g>
			<g>
				<g>
					<path class="st2" d="M1300.7,1290.2H163.6c0-125.6,16.8-231.9,55.7-351.4L1300.7,1290.2z"/>
				</g>
			</g>
			<g>
				<g>
					<path class="st3" d="M1300.7,1290.2L219.3,938.8c38.8-119.4,87.7-215.4,161.5-317L1300.7,1290.2z"/>
				</g>
			</g>
			<g>
				<g>
					<path class="st4" d="M1300.7,1290.2L380.8,621.8c73.8-101.6,149.9-177.7,251.6-251.6L1300.7,1290.2z"/>
				</g>
			</g>
			<g>
				<g>
					<path class="st5" d="M1300.7,1290.2L632.3,370.3c101.6-73.8,197.5-122.7,317-161.5L1300.7,1290.2z"/>
				</g>
			</g>
			<g>
				<g>
					<path class="st6" d="M1300.7,1290.2L949.3,208.7c119.4-38.8,225.8-55.7,351.4-55.7V1290.2z"/>
				</g>
			</g>
		</g>
		<g class="st1">
			<g>
			</g>
			<g>
			</g>
			<g>
			</g>
			<g>
			</g>
			<g>
			</g>
			<g>
			</g>
			<g>
			</g>
			<g>
			</g>
			<g>
			</g>
			<g>
			</g>
			<g>
			</g>
			<g>
			</g>
			<g>
			</g>
			<g>
			</g>
			<g>
			</g>
			<g>
			</g>
			<g>
			</g>
			<g>
			</g>
			<g>
			</g>
			<g>
			</g>
			<g>
			</g>
		</g>
	</g>
</g>
<g id="Graph_raw" class="st0">
	<g id="Graph_1_" class="st1">
		<path class="st10" d="M1114.5,1858.5V721.5c126,0,231.9,16.8,351.4,55.7L1114.5,1858.5z"/>
		<path class="st3" d="M955.8,1830.7l351.4-1081.4c119.4,38.8,215.4,87.7,317,161.5L955.8,1830.7z"/>
		<path class="st4" d="M830,1750L1498.4,830C1600,903.9,1676.1,980,1750,1081.6L830,1750z"/>
		<path class="st5" d="M749.3,1624.2l919.9-668.3c73.8,101.6,122.7,197.5,161.5,317L749.3,1624.2z"/>
		<path class="st11" d="M721.5,1465.5l1081.4-351.4c38.8,119.4,55.7,225.4,55.7,351.4H721.5z"/>
		<path class="st12" d="M721.5,1114.5h1137.1c0,125-16.8,231.9-55.7,351.4L721.5,1114.5z"/>
		<path class="st8" d="M749.3,955.8l1081.4,351.4c-38.8,119.4-87.7,215.4-161.5,317L749.3,955.8z"/>
		<path class="st9" d="M830,830l919.9,668.3c-73.8,101.6-149.9,177.7-251.6,251.6L830,830z"/>
		<path class="st2" d="M955.8,749.3l668.3,919.9c-101.6,73.8-197.5,122.7-317,161.5L955.8,749.3z"/>
		<path class="st13" d="M1114.5,721.5l351.4,1081.4c-119.4,38.8-225.4,55.7-351.4,55.7V721.5z"/>
		<path class="st14" d="M1437.5,721.5v1137.1c-104,0-193.6-11.8-294.3-38.7L1437.5,721.5z"/>
		<path class="st5" d="M1574.3,740.8L1280,1839.2c-100.7-27-184-61.5-274.2-113.6L1574.3,740.8z"/>
		<path class="st6" d="M1692,797.6l-568.5,984.7c-90.3-52.1-161.8-107-235.5-180.7L1692,797.6z"/>
		<path class="st7" d="M1782.4,888l-804,804c-73.7-73.7-128.6-145.2-180.7-235.5L1782.4,888z"/>
		<path class="st8" d="M1839.2,1005.7l-984.7,568.5c-52.1-90.3-86.6-173.5-113.6-274.2L1839.2,1005.7z"/>
		<path class="st15" d="M1858.5,1142.5L760.2,1436.8c-27-100.7-38.7-190.3-38.7-294.3H1858.5z"/>
		<path class="st10" d="M1858.5,1465.5H721.5c0-126,16.8-231.9,55.7-351.4L1858.5,1465.5z"/>
		<path class="st3" d="M1830.7,1624.2L749.3,1272.8c38.8-119.4,87.7-215.4,161.5-317L1830.7,1624.2z"/>
		<path class="st4" d="M1750,1750L830,1081.6C903.9,980,980,903.9,1081.6,830L1750,1750z"/>
		<path class="st5" d="M1624.2,1830.7L955.8,910.8c101.6-73.8,197.5-122.7,317-161.5L1624.2,1830.7z"/>
		<path class="st11" d="M1465.5,1858.5L1114.1,777.1c119.4-38.8,226.4-55.7,351.4-55.7V1858.5z"/>
	</g>
	<g id="Circle" class="st1">
		<circle class="st16" cx="1290" cy="1290" r="900"/>
	</g>
</g>
<g id="final">
	<g id="XMLID_1_">
		<g>
			<path class="st17" d="M2188.3,1290.3h238.8c0,125-16.8,231.9-55.7,351.4l-0.1,0c0-0.1,0.1-0.2,0.1-0.3l-225.1-73.1
				c27.3-85.9,42-177.4,42-272.4C2188.3,1294,2188.3,1292.2,2188.3,1290.3z"/>
			<path class="st18" d="M2427.1,1290.3h-238.8c-0.6-96.8-16.4-189.9-45.3-277.2l228.4-74.2
				C2410.2,1058.4,2427.1,1164.3,2427.1,1290.3z"/>
			<path class="st19" d="M2371.4,1641.4c0,0.1-0.1,0.2-0.1,0.3l-225.1-73.1c0-0.1,0.1-0.2,0.1-0.3L2371.4,1641.4z"/>
			<path class="st20" d="M2371.4,938.6l-228.5,74.2c-29.8-90.2-73.6-174-128.6-249.1l195.6-142.1
				C2283.7,723.3,2332.6,819.2,2371.4,938.6z"/>
			<path class="st19" d="M2146.2,1568.6l225.1,73.1c-38.8,119.3-87.6,215.1-161.4,316.7l-190.1-138.1
				C2074.4,1744.3,2117.3,1659.6,2146.2,1568.6z"/>
			<path class="st19" d="M2209.9,621.7l-195.6,142.1c-55.5-75.6-122.6-142.3-198.6-197.3l142.7-196.4
				C2060,443.9,2136.1,520,2209.9,621.7z"/>
			<path class="st20" d="M2019.8,1820.2l190.1,138.1c-73.8,101.6-149.9,177.7-251.6,251.6l-137.1-188.7
				C1897.5,1965.1,1964.6,1897.2,2019.8,1820.2z"/>
			<path class="st17" d="M1958.3,370.1l-142.7,196.4c-75.2-54.5-159.2-97.6-249.4-126.9l75.1-231
				C1760.8,247.4,1856.7,296.3,1958.3,370.1z"/>
			<path class="st18" d="M1821.2,2021.2l137.1,188.7c-101.6,73.8-197.5,122.7-317,161.5l-71.6-220.4
				C1660.9,2121,1745.6,2076.9,1821.2,2021.2z"/>
			<path class="st21" d="M1641.2,208.6l-75,231c-87.1-28.2-179.9-43.5-276.3-43.7V152.9C1415.8,152.9,1521.7,169.8,1641.2,208.6z"/>
			<path class="st21" d="M1569.6,2151l71.6,220.4c-119.5,38.8-225.4,55.7-351.4,55.7v-231.2C1387.5,2195.7,1481.5,2180,1569.6,2151z
				"/>
			<path class="st17" d="M1289.8,2195.8v231.2c-104,0-193.6-11.8-294.3-38.8l0-0.1c0.1,0,0.1,0,0.2,0.1l59.7-222.9
				c74.3,19.8,152.3,30.4,232.9,30.4C1288.8,2195.8,1289.3,2195.8,1289.8,2195.8z"/>
			<path class="st19" d="M1289.8,152.9v242.9c-0.5,0-1,0-1.5,0c-95.9,0-188.3,15-274.9,42.8l-74.7-230c-0.1,0-0.1,0-0.2,0.1l0-0.1
				C1057.9,169.8,1164.8,152.9,1289.8,152.9z"/>
			<path class="st17" d="M1055.4,2165.4l-59.7,222.9c-0.1,0-0.1,0-0.2-0.1l59.7-222.9C1055.3,2165.4,1055.4,2165.4,1055.4,2165.4z"
				/>
			<path class="st21" d="M1055.3,2165.4l-59.7,222.9c-100.6-27-183.8-61.4-274.1-113.5L837,2074.7
				C904.6,2114,977.9,2144.7,1055.3,2165.4z"/>
			<path class="st20" d="M938.6,208.6l74.7,230c-0.1,0-0.1,0-0.2,0.1l-74.7-230C938.5,208.6,938.6,208.6,938.6,208.6z"/>
			<path class="st20" d="M938.5,208.6l74.7,230c-90.4,29-174.6,71.9-250,126.2L621.7,370.1C723.2,296.3,819.1,247.4,938.5,208.6z"/>
			<path class="st22" d="M837,2074.7l-115.5,200.1c-90.3-52.1-161.8-107-235.5-180.7l163.9-163.9
				C705.4,1986.1,768.3,2034.8,837,2074.7z"/>
			<path class="st18" d="M621.7,370.1l141.5,194.8c-76.4,55-143.8,121.6-199.6,197.3L370.1,621.7C443.9,520,520,443.9,621.7,370.1z"
				/>
			<path class="st19" d="M649.8,1930.2L486,2094c-73.7-73.7-128.6-145.2-180.7-235.5l201.4-116.3
				C546.1,1811.1,594.3,1874.3,649.8,1930.2z"/>
			<path class="st17" d="M370.1,621.7l193.4,140.5c-55.4,75.2-99.5,159.2-129.5,249.7l-225.4-73.2
				C247.4,819.2,296.3,723.3,370.1,621.7z"/>
			<path class="st20" d="M506.7,1742.3l-201.4,116.3c-52.1-90.2-86.6-173.4-113.5-273.9l225.7-60.5
				C437.7,1601.4,467.9,1674.6,506.7,1742.3z"/>
			<path class="st21" d="M208.6,939l225.3,73.2c-29,87.5-45,181-45.6,278.2H152.9C152.9,1164.3,169.8,1058.4,208.6,939z"/>
			<path class="st18" d="M417.4,1523.8c0,0.1,0.1,0.2,0.1,0.3l-225.7,60.5c0-0.1-0.1-0.2-0.1-0.3L417.4,1523.8z"/>
			<path class="st18" d="M417.4,1523.8l-225.8,60.5c0,0.1,0.1,0.2,0.1,0.3l-0.1,0c-27-100.7-38.7-190.3-38.7-294.3h235.4
				c0,1.8,0,3.7,0,5.5C388.3,1374.6,398.4,1451,417.4,1523.8z"/>
		</g>
		<g>
			<path class="st23" d="M1289.8,152.9c126,0,231.9,16.8,351.4,55.7l-75,231"/>
			<path class="st23" d="M1566.3,439.6l75.1-231c119.4,38.8,215.4,87.7,317,161.5"/>
			<path class="st23" d="M1815.7,566.5l142.7-196.4c101.6,73.8,177.7,149.9,251.6,251.6"/>
			<path class="st23" d="M2014.3,763.8l195.6-142.1c73.8,101.6,122.7,197.5,161.5,317l-228.5,74.2"/>
			<path class="st23" d="M2143,1013.2l228.4-74.2c38.8,119.5,55.7,225.4,55.7,351.4"/>
			<path class="st23" d="M2188.3,1290.3h238.8c0,125-16.8,231.9-55.7,351.4l-0.1,0"/>
			<path class="st23" d="M2146.4,1568.2l225.1,73.1c0,0.1-0.1,0.2-0.1,0.3c-38.8,119.3-87.6,215.1-161.4,316.7"/>
			<path class="st23" d="M2019.8,1820.2l190.1,138.1c-73.8,101.6-149.9,177.7-251.6,251.6"/>
			<path class="st23" d="M1821.2,2021.2l137.1,188.7c-101.6,73.8-197.5,122.7-317,161.5l-71.6-220.4"/>
			<path class="st23" d="M1569.6,2151l71.6,220.4c-119.5,38.8-225.4,55.7-351.4,55.7"/>
			<line class="st23" x1="1289.8" y1="1290" x2="1289.8" y2="1290"/>
			<path class="st23" d="M1289.8,2195.8v231.2c-104,0-193.6-11.8-294.3-38.8l0-0.1"/>
			<line class="st23" x1="1289.8" y1="1290" x2="1289.8" y2="1290"/>
			<line class="st23" x1="1289.8" y1="1290" x2="1289.8" y2="1290"/>
			<path class="st23" d="M1055.4,2165.4l-59.7,222.9c-0.1,0-0.1,0-0.2-0.1c-100.6-27-183.8-61.4-274.1-113.5"/>
			<line class="st23" x1="1290" y1="1290" x2="1289.9" y2="1290.3"/>
			<path class="st23" d="M837,2074.7l-115.5,200.1c-90.3-52.1-161.8-107-235.5-180.7"/>
			<line class="st23" x1="1290" y1="1290" x2="1289.9" y2="1290.2"/>
			<path class="st23" d="M649.8,1930.2L486,2094c-73.7-73.7-128.6-145.2-180.7-235.5"/>
			<line class="st23" x1="1290" y1="1290" x2="1290" y2="1290"/>
			<path class="st23" d="M506.7,1742.3l-201.4,116.3c-52.1-90.2-86.6-173.4-113.5-273.9"/>
			<path class="st23" d="M417.5,1524.1l-225.7,60.5l-0.1,0c-27-100.7-38.7-190.3-38.7-294.3"/>
			<path class="st23" d="M388.3,1290.3H152.9c0-126,16.8-231.9,55.6-351.4l225.3,73.2"/>
			<path class="st23" d="M434,1011.9l-225.4-73.2c38.8-119.5,87.7-215.4,161.5-317"/>
			<path class="st23" d="M563.5,762.2L370.1,621.7C443.9,520,520,443.9,621.7,370.1"/>
			<path class="st23" d="M763.2,564.9L621.7,370.1c101.6-73.8,197.4-122.6,316.8-161.4"/>
			<path class="st23" d="M1013.2,438.7l-74.7-230l0-0.1c119.5-38.8,226.4-55.7,351.4-55.7v242.9"/>
			<path class="st24" d="M417.4,1523.8c-19-72.8-29.1-149.2-29.1-228c0-1.8,0-3.7,0-5.5c0.6-97.1,16.6-190.6,45.6-278.2
				c0-0.1,0.1-0.2,0.1-0.3c30-90.5,74.1-174.5,129.5-249.7c55.8-75.7,123.2-142.4,199.6-197.3c75.4-54.3,159.6-97.2,250-126.2
				c0,0,0.1,0,0.2-0.1c86.7-27.8,179.1-42.8,274.9-42.8c0.5,0,1,0,1.5,0c96.4,0.1,189.3,15.5,276.3,43.7c0.1,0,0.1,0,0.2,0.1
				c90.2,29.3,174.2,72.4,249.4,126.9c76,55,143.1,121.7,198.6,197.3c55.1,75,98.8,158.9,128.6,249.1c0,0.1,0.1,0.2,0.1,0.3
				c28.8,87.2,44.7,180.4,45.3,277.2c0,1.8,0,3.7,0,5.5c0,95-14.7,186.5-42,272.4c0,0.1-0.1,0.2-0.1,0.3
				c-28.9,91-71.9,175.8-126.4,251.7c-55.2,76.9-122.3,144.8-198.6,200.9c-75.7,55.7-160.4,99.8-251.5,129.8c-0.1,0-0.1,0-0.2,0.1
				c-88,28.9-182.1,44.7-279.8,44.8c-0.5,0-1,0-1.5,0c-80.5,0-158.6-10.6-232.9-30.4c-0.1,0-0.1,0-0.2-0.1
				c-77.4-20.7-150.6-51.4-218.3-90.7c-68.6-39.9-131.5-88.6-187.1-144.5c-55.5-55.9-103.8-119-143.2-187.9
				c-38.8-67.7-69-140.9-89.1-218.1C417.5,1524,417.5,1523.9,417.4,1523.8z"/>
		</g>
	</g>
	<g id="cross_1_">
		<g>
			<path class="st25" d="M1540,1290h-0.8H1515c-1.1-123.3-101.4-223-225-223v-27C1428.1,1040,1540,1151.9,1540,1290z"/>
			<path class="st25" d="M1539.2,1290h0.8c0,138.1-111.9,250-250,250v-23c124.3,0,225-100.7,225-225c0-0.7,0-1.3,0-2H1539.2z"/>
			<path class="st25" d="M1290,1517v23c-138.1,0-250-111.9-250-250h25c0,0.7,0,1.3,0,2C1065,1416.3,1165.7,1517,1290,1517z"/>
			<path class="st25" d="M1290,1040v27c-123.6,0-223.9,99.7-225,223h-25C1040,1151.9,1151.9,1040,1290,1040z"/>
		</g>
		<g>
			<line class="st26" x1="390" y1="1290" x2="1040" y2="1290"/>
			<line class="st27" x1="1290" y1="1540" x2="1290" y2="2194"/>
			<line class="st27" x1="1290" y1="394" x2="1290" y2="1040"/>
			<line class="st26" x1="1540" y1="1290" x2="2190" y2="1290"/>
			<radialGradient id="SVGID_2_" cx="1290" cy="1290" r="250.25" gradientUnits="userSpaceOnUse">
				<stop  offset="0" style="stop-color:#FFFFFF"/>
				<stop  offset="1" style="stop-color:#000000"/>
			</radialGradient>
			<circle class="st28" cx="1290" cy="1290" r="250"/>
			<radialGradient id="SVGID_3_" cx="1290" cy="1292" r="225.25" gradientUnits="userSpaceOnUse">
				<stop  offset="0" style="stop-color:#FFFFFF"/>
				<stop  offset="1" style="stop-color:#000000"/>
			</radialGradient>
			<path class="st29" d="M1290,1517c-124.3,0-225-100.7-225-225c0-0.7,0-1.3,0-2c1.1-123.3,101.4-223,225-223s223.9,99.7,225,223
				c0,0.7,0,1.3,0,2C1515,1416.3,1414.3,1517,1290,1517z"/>
		</g>
	</g>
	<path id="SVGID_x5F_4_x5F_" class="st30" d="M1569.9,434.6c472.4,154.6,730.1,662.9,575.5,1135.3
		c-154.6,472.4-662.9,730.1-1135.3,575.5C537.7,1990.8,280,1482.5,434.6,1010.1S1097.5,280,1569.9,434.6z"/>
	<text>	<textPath  xlink:href="#SVGID_x5F_4_x5F_" startOffset="72.0187%">
<tspan  style="font-family:'ComicSansMS'; font-size:213px;">trA</tspan>	</textPath>
</text>
	<path id="SVGID_x5F_5_x5F_" class="st30" d="M390.8,1252.1c20.9-496.6,440.5-882.2,937.1-861.3c496.6,20.9,882.2,440.5,861.3,937.1
		s-440.5,882.2-937.1,861.3S369.9,1748.7,390.8,1252.1z"/>
	<text>	<textPath  xlink:href="#SVGID_x5F_5_x5F_" startOffset="72.0187%">
<tspan  style="font-family:'ComicSansMS'; font-size:213px;">egaugnaL</tspan>	</textPath>
</text>
	<path id="SVGID_x5F_6_x5F_" class="st30" d="M1268.3,2189.7c-496.9-12-890-424.5-878.1-921.4c12-496.9,424.5-890,921.4-878.1
		c496.9,12,890,424.5,878.1,921.4S1765.2,2201.7,1268.3,2189.7z"/>
	<text>	<textPath  xlink:href="#SVGID_x5F_6_x5F_" startOffset="72.0187%">
<tspan  style="font-family:'ComicSansMS'; font-size:213px;">Territory</tspan>	</textPath>
</text>
	<path id="SVGID_x5F_7_x5F_" class="st30" d="M2190,1290c0,497.1-402.9,900-900,900s-900-402.9-900-900s402.9-900,900-900
		S2190,792.9,2190,1290z"/>
	<text>	<textPath  xlink:href="#SVGID_x5F_7_x5F_" startOffset="72.0187%">
<tspan  style="font-family:'ComicSansMS'; font-size:213px;">Spirituality</tspan>	</textPath>
</text>
</g>
</svg>
